<svg t="1788358264774" class="icon" viewBox="0 0 1024 1024" version="1.1" xmlns="http://www.w3.org/2000/svg" p-id="3713" width="64" height="64"><path d="M768 1024H256C115.2 1024 0 908.8 0 768V256C0 115.2 115.2 0 256 0h512c140.8 0 256 115.2 256 256v512c0 140.8-115.2 256-256 256z" fill="#9F53E6" p-id="3714"></path><path d="M535.466667 213.333333c-164.266667 0-298.666667 134.4-298.666667 298.666667s134.4 298.666667 298.666667 298.666667 298.666667-134.4 298.666666-298.666667-134.4-298.666667-298.666666-298.666667z m55.466666 298.666667c0 32-25.6 57.6-57.6 57.6-32 0-57.6-25.6-57.6-57.6 0-32 25.6-57.6 57.6-57.6 10.666667 0 21.333333 2.133333 29.866667 8.533333l115.2-115.2 19.2 19.2-115.2 115.2c6.4 8.533333 8.533333 19.2 8.533333 29.866667z" fill="#FFFFFF" p-id="3715"></path></svg>
