<svg t="1788430882688" class="icon" viewBox="0 0 1024 1024" version="1.1" xmlns="http://www.w3.org/2000/svg" p-id="1399" width="64" height="64"><path d="M0 512C0 229.236364 229.236364 0 512 0s512 229.236364 512 512-229.236364 512-512 512S0 794.763636 0 512z m715.659636-250.88H308.363636c-26.065455 0-47.220364 21.131636-47.220363 47.220364V715.636364c0 26.065455 21.131636 47.220364 47.220363 47.220363H715.636364c26.065455 0 47.220364-21.131636 47.220363-47.220363V308.363636c0-26.065455-21.131636-47.220364-47.220363-47.220363z m-49.92 239.080727L498.781091 640a18.338909 18.338909 0 0 1-25.6-2.001455l-81.361455-92.439272a18.478545 18.478545 0 1 1 27.601455-24.436364l69.538909 78.894546 153.181091-128a18.478545 18.478545 0 1 1 23.598545 28.462545v-0.279273z m-367.941818-109.079272v-36.701091h427.52v36.701091h-427.52z" fill="#FF4D4F" p-id="1400"></path></svg>
