<svg t="1788674664211" class="icon" viewBox="0 0 1024 1024" version="1.1" xmlns="http://www.w3.org/2000/svg" p-id="1809" width="64" height="64"><path d="M679.284 546.66c-6.419-11.42-14.013-21.507-22.524-29.975-9.328-9.256-18.441-17.366-27.081-24.071-11.148-8.182-21.679-16.521-30.806-24.444-9.256-8.038-16.735-14.973-22.911-21.206-4.198-3.897-8.225-7.91-11.921-11.85h-112.75c-3.783 4.112-7.823 8.296-12.093 12.537-5.373 5.817-12.838 12.924-21.578 20.518-8.453 7.336-17.91 15.102-28.37 23.327-10.747 8.282-20.647 17.638-29.631 27.969-8.683 10.001-16.033 21.134-21.793 33.055-5.717 11.792-9.729 24.63-11.921 38.128-2.107 12.953-1.662 26.823 1.304 41.18 2.593 12.681 8.124 25.791 16.477 39.030 8.339 13.182 19.902 25.375 34.345 36.25 14.63 11.018 32.97 20.174 54.49 27.224 21.535 7.064 46.911 10.646 75.425 10.646 27.969 0 53.13-3.138 74.737-9.328 21.435-6.132 40.033-14.4 55.293-24.573 14.744-9.83 26.665-21.421 35.434-34.489 8.726-13.010 14.658-27.009 17.61-41.538 3.338-18.24 3.826-35.090 1.332-49.719-2.508-14.701-6.907-27.711-13.068-38.672zM566.075 641.457c11.649 0 17.481 4.871 17.481 14.529 0.415 4.613-0.702 7.981-3.41 10.044-2.708 2.092-6.161 3.124-10.33 3.124h-43.688v13.841c0 4.155-1.562 8.196-4.7 12.108-3.11 3.926-7.164 5.674-12.165 5.201-5.001 0-9.156-1.275-12.494-3.826-3.324-2.522-5.201-7.035-5.631-13.483v-13.841h-42.455c-4.155 0-7.594-1.261-10.302-3.826-2.693-2.536-3.84-5.631-3.425-9.342 0-4.141 1.347-7.465 4.070-10.015 2.693-2.55 5.918-3.811 9.657-3.811h42.455v-24.201h-42.455c-4.17 0-7.479-1.404-9.987-4.17-2.493-2.766-3.74-6.004-3.74-9.7 0-3.682 1.347-7.15 4.070-10.373 2.693-3.252 5.918-4.843 9.657-4.843h42.455l0.616-14.529c-7.479-8.31-14.343-16.162-20.604-23.542-5.402-6.462-10.403-12.451-14.988-17.996l-9.356-9.686c-2.077-2.78-3.94-6.591-5.617-11.42-1.662-4.857-0.831-9.815 2.493-14.887 3.74-4.613 8.325-5.889 13.727-3.811s9.787 4.729 13.125 7.952c1.662 2.307 4.57 5.774 8.74 10.388l29.975 33.199c7.078-7.365 13.526-14.070 19.358-20.060 5.015-5.072 9.987-10.030 14.973-14.873 5.015-4.857 8.569-8.196 10.631-10.044 3.754-3.682 7.91-5.53 12.48-5.53 4.585 0 8.325 2.063 11.233 6.232 5.43 6.907 3.324 15.002-6.232 24.215-2.508 2.321-6.276 6.348-11.248 12.122-5.015 5.76-9.987 11.42-15.002 16.965-5.803 6.907-12.279 14.070-19.343 21.45v13.139h40.578c5.817 0 10.102 1.49 12.81 4.499 2.693 2.994 4.041 6.333 4.041 10.015 0 4.17-1.232 7.737-3.726 10.732-2.508 3.009-6.677 4.27-12.494 3.826l-40.592 0.702-0.616 23.512h39.976z" fill="#1890ff" p-id="1810"></path><path d="M447.379 353.915c3.081 3.911 5.917 7.794 8.54 11.678 4.57 6.376 5.072 14.156 5.388 26.55h91.759c-0.244-11.018 0-18.154 4.027-24.702 2.264-3.653 4.786-7.322 7.523-10.99 2.55-3.382 4.829-6.333 6.907-8.927 4.184-5.201 8.353-10.13 12.537-14.758 0.272-0.287 0.516-0.573 0.788-0.86-6.907-0.057-13.125-1.39-18.441-3.926-3.983-1.906-7.766-4.284-11.233-7.078l-6.72-5.43c-0.071 0-0.588-0.215-1.505-0.472l-1.633-0.502c-2.679-0.946-4.284-1.218-5.015-1.29-2.221 0.96-4.57 2.465-7.050 4.485-4.399 3.926-8.439 7.021-12.036 9.156-4.542 2.679-9.213 4.027-13.87 4.027h-4.513l-4.141-1.82c-3.181-1.39-6.204-3.067-9.041-4.958-2.278-1.247-4.456-2.608-6.519-4.041-2.422-1.662-4.743-3.596-6.907-5.789-0.315-0.029-1.29-0.301-2.894-0.516-1.806-0.272-3.067 0.029-3.754 0.43-7.121 4.098-9.342 6.132-9.557 6.348-5.774 5.488-13.554 9.199-23.126 11.032-2.063 0.458-4.714 0.759-7.436 0.788 4.041 3.84 7.78 8.067 11.205 12.623 2.15 3.023 4.255 5.817 6.72 8.941z" fill="#1890ff" p-id="1811"></path><path d="M512 32c-265.089 0-480 214.897-480 480s214.911 480 480 480c265.103 0 480-214.897 480-480s-214.897-480-480-480zM733.23 643.19c-4.155 20.461-12.236 39.618-24.114 57.328-11.935 17.782-27.84 33.356-47.312 46.324-18.942 12.623-41.581 22.768-67.286 30.132-25.476 7.293-54.62 10.99-86.572 10.99-33.084 0-62.959-4.298-88.822-12.781-26.020-8.54-48.545-19.888-66.956-33.743-18.598-13.999-33.686-30.018-44.819-47.613-11.148-17.667-18.641-35.606-22.267-53.359-4.012-19.458-4.57-38.558-1.619-56.711 2.866-17.624 8.124-34.431 15.661-49.977 7.408-15.317 16.836-29.631 28.041-42.512 10.861-12.494 22.868-23.828 35.678-33.686 9.686-7.623 18.612-14.959 26.579-21.879 7.58-6.577 13.942-12.609 18.87-17.939 3.854-3.84 7.322-7.408 10.489-10.818-0.201-3.238-0.287-6.834-0.387-10.904-0.071-2.737-0.172-6.834-0.344-9.586-1.476-2.063-2.923-3.998-4.456-5.932-2.994-3.797-5.588-7.25-7.737-10.316-2.465-3.267-5.689-6.649-9.199-9.514-4.342-3.553-8.583-6.706-12.724-9.471-8.453-5.172-15.203-13.383-18.813-23.284-5.287-14.63-0.215-29.473 13.196-38.801 7.58-4.857 15.274-6.677 23.785-5.831 4.628 0.444 9.543 1.361 14.587 2.708 3.969 1.060 7.881 2.121 11.692 3.195 2.25-0.244 2.966-0.602 2.98-0.602 3.052-3.095 8.841-7.15 17.18-11.935 9.6-5.244 19.63-7.021 30.663-5.516 10.474 1.448 19.043 5.044 25.39 10.689l1.676 1.662c0.143 0.157 0.287 0.301 0.401 0.415 6.706-5.316 13.096-8.97 19.601-11.377 9.285-3.468 20.131-3.124 32.64 1.19 6.49 1.849 12.065 4.642 16.564 8.325l6.649 5.388c0.874 0.688 1.791 1.29 2.809 1.762 2.121-0.272 2.851-0.472 2.851-0.472 2.837-1.089 5.731-2.121 8.526-3.081 3.697-1.275 7.609-2.221 11.577-2.766 5.703-0.759 11.678-0.215 18.169 1.719 12.537 4.485 18.154 11.449 20.848 16.592 3.74 7.092 4.829 14.93 3.152 22.653-1.19 5.789-3.926 11.577-8.11 16.965-3.969 5.087-8.827 9.256-14.471 12.394-6.591 3.711-9.887 6.606-11.477 8.368-3.683 4.070-7.322 8.353-10.961 12.881-1.82 2.278-3.854 4.871-6.047 7.794-1.031 1.39-2.049 2.794-3.009 4.212-0.014 2.479 0.071 5.903 0.129 8.439 0.114 4.312 0.215 8.196 0.143 11.735 2.88 3.023 6.118 6.204 9.657 9.529 5.917 5.975 12.824 12.351 21.106 19.544 8.253 7.15 17.868 14.758 28.542 22.61 10.46 8.11 20.905 17.38 31.465 27.883 11.333 11.262 21.307 24.502 29.689 39.374 8.611 15.274 14.644 32.941 17.996 52.513 3.368 19.601 2.866 41.51-1.476 65.093z" fill="#1890ff" p-id="1812"></path></svg>
